<?xml version="1.0" standalone="no"?>
<!DOCTYPE svg PUBLIC "-//W3C//DTD SVG 20010904//EN"
 "http://www.w3.org/TR/2001/REC-SVG-20010904/DTD/svg10.dtd">
<svg version="1.0" xmlns="http://www.w3.org/2000/svg"
 width="500.000000pt" height="500.000000pt" viewBox="0 0 500.000000 500.000000"
 preserveAspectRatio="xMidYMid meet">
<metadata>
Created by potrace 1.11, written by Peter Selinger 2001-2013
</metadata>
<g transform="translate(0.000000,500.000000) scale(0.100000,-0.100000)"
fill="#000000" stroke="none">
<path d="M2557 4873 c-13 -14 -21 -15 -35 -7 -25 15 -98 16 -114 1 -7 -7 -27
-12 -45 -12 -23 0 -34 -5 -39 -20 -6 -19 -6 -19 -11 -2 -3 11 -11 16 -19 13
-8 -3 -14 -1 -14 4 0 6 -5 10 -11 10 -6 0 -9 -7 -5 -15 6 -17 -9 -21 -19 -5
-4 7 -13 4 -23 -7 -16 -17 -52 -27 -52 -14 0 3 -18 6 -40 6 -30 0 -42 -5 -46
-18 -7 -22 -53 -13 -73 14 -13 19 -48 28 -36 9 3 -5 3 -21 -1 -36 -7 -26 -8
-26 -22 -8 -9 11 -13 13 -10 4 3 -8 9 -26 13 -40 l7 -25 -26 24 c-27 26 -33
22 -16 -10 6 -11 7 -19 1 -19 -5 0 -12 8 -15 17 -6 14 -9 15 -15 4 -6 -9 -11
-10 -15 -2 -13 21 -25 11 -21 -19 5 -38 -9 -46 -36 -19 -27 27 -51 11 -31 -21
10 -17 9 -18 -6 -13 -14 5 -15 3 -4 -8 17 -18 16 -53 -2 -46 -44 17 -83 18
-89 3 -7 -19 1 -46 14 -46 5 0 9 -4 9 -10 0 -5 -9 -10 -19 -10 -10 0 -21 -7
-25 -15 -3 -9 -18 -15 -36 -15 -16 0 -30 -4 -30 -9 0 -5 -8 -11 -17 -14 -15
-3 -13 -6 9 -15 39 -16 42 -30 8 -37 -16 -4 -30 -11 -30 -16 0 -5 -7 -9 -15
-9 -8 0 -15 -4 -15 -10 0 -5 6 -10 13 -10 8 0 8 -3 -2 -9 -11 -7 -10 -10 5
-14 16 -4 16 -5 -3 -6 -12 0 -33 -6 -47 -12 -22 -10 -23 -13 -10 -26 16 -16
10 -33 -12 -33 -8 0 -14 -6 -14 -14 0 -8 -10 -22 -22 -30 -26 -19 -21 -20 19
-6 l28 10 -24 -19 c-24 -18 -42 -69 -20 -55 19 11 -9 -34 -29 -46 -16 -11 -16
-11 0 -6 14 4 16 1 8 -18 -5 -13 -6 -27 -3 -30 3 -3 1 -11 -5 -18 -11 -15 -7
-94 6 -112 5 -6 8 -64 8 -129 -1 -64 2 -117 6 -117 5 0 5 -17 2 -37 -3 -21 -7
-76 -9 -123 -6 -128 -12 -203 -20 -222 -5 -13 -2 -18 9 -18 14 0 16 -6 10 -35
-6 -36 3 -44 24 -23 9 9 11 6 7 -10 -2 -12 -6 -25 -8 -30 -5 -7 24 -40 30 -35
8 8 84 -56 93 -77 6 -14 16 -35 23 -47 12 -20 14 -20 24 -5 10 15 12 14 13 -8
1 -31 25 -77 37 -70 4 3 24 -60 44 -139 20 -80 38 -138 41 -130 3 8 1 26 -4
41 -6 15 -8 57 -5 93 2 36 1 65 -3 65 -4 0 -14 46 -24 103 -10 56 -20 113 -23
127 -10 50 -2 155 13 163 8 4 14 12 14 17 0 5 5 21 11 37 8 22 12 25 20 13 7
-11 8 -6 3 15 -4 20 -3 26 4 17 8 -11 10 -11 15 1 3 7 2 19 -3 26 -9 16 -1
102 11 116 5 5 9 17 9 26 0 9 7 19 15 23 8 3 15 12 15 20 0 8 -7 21 -15 30
-17 17 -20 76 -4 76 8 0 10 12 6 35 -3 19 -2 35 3 35 5 0 11 8 13 18 2 9 3 -1
1 -23 -3 -38 -2 -38 8 -12 12 34 1 114 -12 82 -15 -36 -10 -3 7 52 17 54 35
67 48 36 5 -14 11 -6 22 31 15 50 11 77 -6 35 -10 -24 -10 -24 -10 -1 -1 34
-19 26 -24 -10 -3 -22 -4 -17 -4 15 1 49 5 55 25 35 8 -8 12 -9 12 -1 0 6 -6
14 -12 16 -8 4 -7 6 3 6 9 1 19 8 23 16 7 20 -8 19 -29 -1 -8 -9 -21 -14 -28
-11 -8 3 -14 -4 -14 -16 -1 -11 -7 -25 -14 -31 -9 -8 -10 -4 -5 17 7 31 -9 37
-19 6 -4 -11 -9 -19 -11 -16 -10 10 27 101 50 122 14 13 26 27 26 31 0 9 52
49 65 49 15 0 55 28 55 38 0 5 9 20 20 34 24 31 25 43 5 43 -8 0 -15 4 -15 10
0 5 7 7 15 4 8 -4 15 -1 15 4 0 6 -7 17 -15 26 -24 24 -17 36 20 36 26 0 33
-3 29 -15 -7 -18 -21 -20 -27 -2 -2 6 -8 9 -12 4 -5 -4 -1 -13 9 -20 15 -11
16 -19 9 -48 -5 -19 -7 -47 -3 -64 l5 -29 23 28 c12 16 22 38 22 49 0 16 3 17
15 7 11 -9 12 -17 5 -30 -14 -27 -12 -34 5 -20 12 10 15 9 15 -8 0 -11 -13
-32 -30 -45 -34 -29 -37 -37 -15 -37 8 0 15 6 15 13 0 8 9 22 20 32 11 10 20
31 20 46 0 29 15 48 22 27 3 -9 6 -9 12 0 4 7 2 12 -3 12 -14 0 -14 27 -1 35
6 4 20 -4 31 -17 13 -15 19 -18 18 -8 -3 29 1 40 15 40 7 0 13 10 13 23 1 56
2 58 22 45 11 -7 22 -22 26 -35 3 -13 9 -23 13 -23 5 0 8 -18 8 -39 -1 -31 2
-37 12 -29 7 6 10 20 6 32 -7 21 -6 21 15 2 16 -15 21 -16 21 -5 0 8 -5 20
-12 27 -17 17 -6 23 14 8 25 -18 27 -109 4 -135 -10 -11 -15 -25 -11 -30 3 -6
0 -11 -8 -11 -7 0 -30 -18 -50 -40 -19 -22 -32 -40 -27 -40 4 0 22 16 40 36
17 20 34 33 37 30 9 -9 35 33 28 45 -4 6 2 13 13 16 21 5 36 39 22 48 -4 3
-10 15 -12 28 -4 20 -1 23 19 19 13 -2 26 -8 28 -13 3 -4 12 -6 19 -3 14 5 36
-42 36 -77 0 -21 16 -33 32 -23 8 5 5 11 -7 20 -10 8 -15 17 -12 21 14 13 37
-32 35 -66 -2 -20 2 -36 10 -39 7 -2 10 2 6 12 -3 9 -1 16 5 16 14 0 15 -42 1
-58 -5 -7 -2 -5 7 3 14 12 18 12 29 -3 12 -15 13 -15 14 7 0 13 12 37 26 55
25 29 26 29 19 6 -4 -14 -10 -30 -12 -36 -2 -7 1 -15 8 -20 7 -4 10 -3 5 4 -7
11 13 62 24 62 4 0 10 -9 13 -21 3 -12 10 -18 16 -15 5 4 3 -8 -6 -24 -19 -39
-11 -49 11 -15 l17 26 19 -23 19 -23 16 35 c13 30 15 31 10 8 -4 -23 -2 -28
14 -28 10 0 22 7 25 16 3 8 2 12 -4 9 -18 -11 -11 11 9 29 18 16 20 16 33 -3
8 -12 18 -18 23 -13 5 4 5 1 1 -6 -4 -7 -12 -10 -17 -7 -5 4 -9 -3 -9 -14 0
-10 -6 -21 -12 -24 -7 -2 -9 -8 -5 -13 4 -4 16 -3 27 4 16 10 20 8 26 -11 7
-21 8 -20 16 9 4 18 20 39 35 49 l28 17 -27 -26 c-18 -17 -25 -32 -21 -43 5
-14 8 -13 14 5 5 12 11 22 14 22 4 0 3 -4 0 -10 -10 -16 5 -12 36 11 16 11 29
26 29 34 0 7 7 15 15 19 17 6 20 -5 6 -19 -15 -16 -25 -59 -12 -51 14 9 14 0
1 -25 -6 -10 -7 -19 -2 -19 5 0 14 11 20 24 8 19 8 26 -1 29 -9 3 -9 8 -1 16
9 10 13 6 18 -14 5 -18 12 -25 21 -21 14 5 19 -5 16 -31 -2 -16 19 -17 39 -2
13 9 12 10 -2 5 -25 -7 -22 7 4 30 12 10 18 14 15 8 -4 -7 -1 -14 7 -17 10 -4
13 1 10 16 -4 19 -3 18 6 -3 14 -31 -2 -70 -27 -70 -17 -1 -17 -1 -1 -11 19
-10 49 10 61 41 3 10 6 6 7 -10 4 -41 5 -45 13 -47 18 -7 27 -1 39 22 14 25
14 25 31 5 15 -18 15 -21 2 -26 -21 -8 -19 -36 3 -32 9 2 20 7 24 13 10 14 35
-23 44 -65 13 -65 12 -140 -1 -140 -14 0 -25 -22 -25 -51 0 -12 -7 -19 -18
-19 -20 0 -135 -103 -126 -113 4 -4 -5 -11 -19 -16 -14 -6 -31 -20 -38 -33
-16 -30 -28 -38 -62 -38 -16 0 -38 -5 -49 -11 -11 -6 -41 -15 -67 -19 -39 -6
-41 -8 -13 -9 34 -1 40 -9 20 -29 -7 -7 -17 -8 -30 -1 -12 6 -18 6 -18 -1 0
-5 -22 -10 -49 -10 -35 0 -51 -4 -55 -16 -3 -9 -4 -19 -1 -24 3 -4 -2 -13 -10
-20 -25 -21 -17 -31 18 -25 54 10 67 -11 67 -107 0 -62 -4 -84 -16 -92 -9 -7
-19 -37 -23 -71 -8 -58 -8 -60 27 -102 33 -39 72 -57 72 -33 0 5 7 7 15 4 11
-5 15 1 15 23 0 28 15 53 32 53 5 0 6 -10 3 -23 -7 -28 1 -35 75 -65 35 -14
81 -23 120 -24 51 -1 68 -6 79 -20 7 -11 19 -17 27 -14 7 3 25 -9 39 -27 15
-18 33 -40 41 -50 9 -11 16 -43 17 -77 1 -32 5 -56 9 -54 8 5 10 -132 2 -159
-3 -9 -9 -15 -14 -12 -13 8 -40 -60 -40 -100 0 -32 2 -36 15 -25 8 7 15 9 15
5 0 -5 8 -1 18 9 27 23 40 76 47 186 8 133 12 163 48 350 17 91 37 171 43 178
7 7 16 32 19 57 4 24 14 50 22 56 9 8 12 22 8 41 -6 25 7 40 18 21 2 -5 2 -1
-1 7 -14 47 -15 53 -5 47 16 -10 24 20 13 47 -9 26 -11 74 -5 166 3 52 -9 151
-22 188 -6 15 -5 15 10 3 15 -12 17 -11 17 3 0 10 5 14 10 11 6 -3 10 1 10 9
0 8 -4 18 -10 21 -5 3 -10 22 -10 41 0 20 -5 45 -11 56 -9 17 -9 20 4 15 19
-7 12 27 -9 44 -17 14 -19 33 -2 23 8 -5 9 -2 5 9 -4 10 -2 17 5 17 7 0 7 4
-1 14 -9 11 -9 15 1 19 8 4 5 8 -9 12 -13 4 -19 13 -16 21 2 7 1 19 -3 26 -4
7 -9 19 -11 28 -7 43 -17 77 -27 90 -26 35 -34 58 -25 67 6 6 4 14 -6 23 -8 7
-15 19 -15 27 0 7 -7 16 -15 19 -8 4 -13 10 -10 14 3 5 -4 15 -16 23 -20 14
-20 16 -2 27 15 9 9 10 -29 7 -32 -3 -45 -1 -41 6 4 7 0 8 -12 3 -15 -5 -16
-4 -5 9 10 12 10 15 -1 15 -10 1 -9 5 4 14 16 12 14 14 -25 20 -24 3 -49 7
-55 8 -16 2 -16 4 -3 29 8 15 7 19 -5 19 -8 0 -15 7 -15 15 0 8 -9 15 -20 15
-12 0 -20 7 -20 16 0 11 -5 14 -16 10 -12 -4 -14 -1 -9 13 3 11 1 22 -4 25 -6
4 -7 14 -4 24 6 16 5 16 -14 0 -24 -22 -33 -23 -33 -2 0 9 -5 12 -12 8 -8 -5
-9 -1 -4 12 4 12 -3 7 -18 -11 -19 -23 -24 -25 -20 -10 3 11 -2 38 -10 60 -11
30 -15 34 -15 17 -1 -13 -5 -20 -11 -17 -7 4 -9 -3 -5 -22 5 -27 5 -27 -5 -4
-6 14 -8 31 -6 38 3 7 1 13 -4 13 -6 0 -10 -6 -11 -12 0 -7 -6 -2 -12 12 -12
26 -32 50 -41 50 -2 0 -7 -8 -9 -17 -4 -17 -5 -17 -6 0 -1 13 -6 17 -20 12
-14 -4 -21 0 -24 12 -4 17 -5 17 -6 1 -2 -26 -15 -22 -31 7 -8 14 -19 24 -26
21 -7 -3 -24 7 -38 21 -14 14 -26 21 -26 16 0 -6 -9 -13 -20 -16 -11 -3 -20 0
-20 5 0 6 -9 3 -19 -6 -15 -13 -20 -14 -24 -4 -4 10 -7 11 -18 1 -20 -20 -27
-16 -21 13 4 24 3 25 -17 12 -18 -11 -23 -11 -31 2 -8 12 -10 12 -10 1 0 -8
-3 -11 -7 -8 -3 4 -12 -1 -19 -11 -12 -16 -13 -15 -14 6 0 14 -5 22 -12 19 -7
-2 -18 2 -23 10 -8 11 -13 11 -28 -4z m-82 -433 c-3 -5 -10 -10 -16 -10 -5 0
-9 5 -9 10 0 6 7 10 16 10 8 0 12 -4 9 -10z m-45 -46 c0 -8 -4 -14 -10 -14 -5
0 -10 2 -10 4 0 2 -3 12 -6 20 -5 12 -2 15 10 10 9 -3 16 -12 16 -20z m100 -9
c0 -8 -4 -15 -10 -15 -5 0 -10 7 -10 15 0 8 5 15 10 15 6 0 10 -7 10 -15z
m-60 -15 c12 -8 11 -10 -7 -10 -13 0 -23 5 -23 10 0 13 11 13 30 0z m-505 -26
c-9 -9 -14 -23 -11 -30 6 -17 -3 -44 -14 -44 -12 0 1 73 14 82 20 14 28 8 11
-8z m-63 -26 c-8 -8 -9 -4 -5 13 4 13 8 18 11 10 2 -7 -1 -18 -6 -23z m78 2
c0 -5 -4 -10 -10 -10 -5 0 -10 5 -10 10 0 6 5 10 10 10 6 0 10 -4 10 -10z
m564 -26 c3 -8 2 -12 -4 -9 -6 3 -10 10 -10 16 0 14 7 11 14 -7z m36 -4 c0 -5
-2 -10 -4 -10 -3 0 -8 5 -11 10 -3 6 -1 10 4 10 6 0 11 -4 11 -10z m304 -34
c2 -14 -1 -23 -5 -20 -5 3 -9 17 -9 31 0 32 11 24 14 -11z m-971 4 c-3 -11 -9
-20 -14 -20 -10 0 -12 24 -2 33 13 13 21 7 16 -13z m722 -18 c-4 -16 -1 -28 7
-33 10 -7 10 -11 0 -21 -9 -9 -12 -8 -12 6 0 9 -4 15 -8 12 -5 -3 -9 0 -9 7 0
7 -3 23 -8 37 -7 23 -7 24 10 10 17 -14 18 -13 12 3 -4 12 -3 16 4 11 6 -3 8
-17 4 -32z m32 -4 c-3 -7 -5 -2 -5 12 0 14 2 19 5 13 2 -7 2 -19 0 -25z m93
-53 c0 -8 -2 -15 -4 -15 -2 0 -6 7 -10 15 -3 8 -1 15 4 15 6 0 10 -7 10 -15z
m24 -31 c3 -8 2 -12 -4 -9 -6 3 -10 10 -10 16 0 14 7 11 14 -7z m342 -31 c-11
-11 -17 4 -9 23 7 18 8 18 11 1 2 -10 1 -21 -2 -24z m-1318 -335 c-2 -6 -10
-14 -16 -16 -7 -2 -10 2 -6 12 7 18 28 22 22 4z m-57 -351 c-10 -9 -11 -8 -5
6 3 10 9 15 12 12 3 -3 0 -11 -7 -18z m1586 -254 c4 -10 11 -21 17 -25 6 -5 2
-8 -11 -8 -12 0 -28 -8 -35 -17 -26 -35 -57 -45 -116 -37 -43 5 -52 9 -37 15
17 6 17 8 3 8 -21 1 -24 21 -4 21 8 0 17 9 21 20 4 12 20 22 48 28 70 16 107
14 114 -5z m150 -645 c-2 -13 -4 -3 -4 22 0 25 2 35 4 23 2 -13 2 -33 0 -45z
m-27 -102 c0 -3 -4 -8 -10 -11 -5 -3 -10 -1 -10 4 0 6 5 11 10 11 6 0 10 -2
10 -4z"/>
<path d="M2245 4350 c3 -5 8 -10 11 -10 2 0 4 5 4 10 0 6 -5 10 -11 10 -5 0
-7 -4 -4 -10z"/>
<path d="M2012 4283 c-6 -2 -9 -9 -6 -15 3 -5 -7 -23 -22 -40 l-29 -31 27 17
c25 16 38 35 44 64 1 6 2 12 1 11 -1 0 -8 -3 -15 -6z"/>
<path d="M2302 4266 c-8 -19 -8 -27 3 -36 11 -9 12 -7 8 8 -2 11 0 23 6 26 13
8 15 26 3 26 -5 0 -14 -11 -20 -24z"/>
<path d="M2450 4258 c0 -9 7 -19 16 -22 15 -6 15 -4 3 11 -7 10 -15 20 -16 22
-2 2 -3 -3 -3 -11z"/>
<path d="M2179 4233 c-13 -16 -12 -17 4 -4 9 7 17 15 17 17 0 8 -8 3 -21 -13z"/>
<path d="M2251 4194 c-24 -41 -12 -37 19 6 12 17 17 30 12 30 -6 0 -19 -16
-31 -36z"/>
<path d="M2400 4208 c-12 -22 -12 -22 6 -6 10 10 15 20 12 24 -4 3 -12 -5 -18
-18z"/>
<path d="M2485 4209 c-4 -6 -5 -12 -2 -15 2 -3 7 2 10 11 7 17 1 20 -8 4z"/>
<path d="M1926 4188 c-14 -21 -15 -21 -10 -3 4 15 1 13 -9 -5 -9 -14 -14 -26
-13 -28 8 -8 35 12 44 34 14 30 9 31 -12 2z"/>
<path d="M1986 4194 c-9 -24 -2 -26 12 -4 7 11 8 20 3 20 -5 0 -12 -7 -15 -16z"/>
<path d="M2112 4167 c-17 -18 -19 -24 -7 -24 8 0 13 3 10 5 -3 3 2 14 12 24
24 27 10 22 -15 -5z"/>
<path d="M2040 4150 c-6 -11 -8 -20 -6 -20 3 0 10 9 16 20 6 11 8 20 6 20 -3
0 -10 -9 -16 -20z"/>
<path d="M2260 4155 c-11 -13 -10 -14 4 -9 9 3 16 10 16 15 0 13 -6 11 -20 -6z"/>
<path d="M1871 4134 c0 -11 3 -14 6 -6 3 7 2 16 -1 19 -3 4 -6 -2 -5 -13z"/>
<path d="M1890 4131 c0 -6 5 -13 10 -16 6 -3 10 1 10 9 0 9 -4 16 -10 16 -5 0
-10 -4 -10 -9z"/>
<path d="M1926 4123 c-6 -14 -5 -15 5 -6 7 7 10 15 7 18 -3 3 -9 -2 -12 -12z"/>
<path d="M2070 4115 c-7 -9 -11 -17 -9 -20 3 -2 10 5 17 15 14 24 10 26 -8 5z"/>
<path d="M2475 4120 c-3 -5 -1 -10 4 -10 6 0 11 5 11 10 0 6 -2 10 -4 10 -3 0
-8 -4 -11 -10z"/>
<path d="M3016 4105 c-3 -9 0 -15 9 -15 16 0 20 16 6 24 -5 3 -11 -1 -15 -9z"/>
<path d="M2345 4100 c-3 -5 -1 -10 4 -10 6 0 11 5 11 10 0 6 -2 10 -4 10 -3 0
-8 -4 -11 -10z"/>
<path d="M1931 4082 c-17 -31 -13 -40 5 -14 9 13 14 26 11 29 -3 2 -10 -4 -16
-15z"/>
<path d="M2560 4089 c0 -5 5 -7 10 -4 6 3 10 8 10 11 0 2 -4 4 -10 4 -5 0 -10
-5 -10 -11z"/>
<path d="M2840 4089 c0 -5 5 -7 10 -4 6 3 10 8 10 11 0 2 -4 4 -10 4 -5 0 -10
-5 -10 -11z"/>
<path d="M3102 4054 c-7 -8 -8 -14 -3 -14 10 0 25 19 20 25 -2 1 -10 -3 -17
-11z"/>
<path d="M3370 3898 c0 -9 5 -20 11 -23 17 -11 18 -2 3 19 -12 17 -14 17 -14
4z"/>
<path d="M1840 3690 c0 -5 5 -10 10 -10 6 0 10 5 10 10 0 6 -4 10 -10 10 -5 0
-10 -4 -10 -10z"/>
<path d="M1857 3643 c-4 -3 -7 -13 -7 -22 1 -13 3 -13 11 2 11 19 8 33 -4 20z"/>
<path d="M2371 3509 c-17 -16 -36 -29 -43 -28 -35 4 -57 -5 -95 -40 -27 -23
-43 -47 -43 -61 0 -15 4 -20 14 -17 8 3 49 -5 92 -19 42 -13 83 -24 90 -24 23
0 82 -70 88 -105 8 -43 -2 -85 -19 -79 -7 3 -54 6 -104 7 -71 2 -90 -1 -86
-11 2 -7 -1 -12 -8 -11 -6 1 -25 -3 -42 -10 -86 -33 -103 -44 -108 -67 -5 -26
17 -37 114 -54 30 -6 67 -13 83 -16 22 -5 27 -4 21 6 -5 8 -3 11 6 8 8 -3 13
-11 11 -17 -1 -6 5 -11 14 -11 8 0 12 5 9 10 -3 6 0 10 9 10 8 0 17 -6 19 -12
4 -10 6 -10 6 0 1 7 14 12 31 12 16 0 50 6 76 12 45 12 46 13 42 49 -3 33 -1
36 14 28 10 -5 22 -18 28 -29 21 -39 51 -16 55 41 8 128 16 152 61 194 l44 40
-25 37 c-13 20 -30 56 -37 81 -11 41 -14 45 -57 55 -25 6 -73 14 -106 17 -33
4 -68 13 -79 21 -29 20 -41 18 -75 -17z"/>
<path d="M2835 3510 c3 -5 8 -10 11 -10 2 0 4 5 4 10 0 6 -5 10 -11 10 -5 0
-7 -4 -4 -10z"/>
<path d="M2760 3380 c0 -11 5 -20 10 -20 6 0 10 9 10 20 0 11 -4 20 -10 20 -5
0 -10 -9 -10 -20z"/>
<path d="M1432 3108 c-22 -27 -24 -121 -4 -183 11 -34 22 -54 25 -45 39 113
39 112 61 105 46 -14 66 -17 66 -8 0 14 -67 113 -87 128 -23 18 -47 19 -61 3z"/>
<path d="M1556 2943 c-54 -19 -66 -31 -66 -63 0 -40 34 -115 61 -133 12 -9 46
-23 74 -32 52 -17 88 -55 78 -82 -7 -19 27 -29 38 -12 17 27 9 56 -26 97 -33
38 -36 46 -37 115 -2 73 -2 74 -37 98 -45 30 -39 29 -85 12z"/>
<path d="M3100 2916 c0 -3 14 -19 31 -36 27 -25 40 -30 80 -30 49 0 49 0 29
20 -11 11 -37 24 -57 29 -21 5 -48 13 -60 16 -13 4 -23 5 -23 1z"/>
<path d="M2895 2561 c-27 -10 -58 -21 -67 -25 -11 -5 -24 -1 -39 13 -33 31
-99 29 -137 -4 -35 -30 -50 -31 -68 -7 -22 29 -16 -4 11 -62 32 -67 57 -80
125 -64 48 11 51 10 79 -16 24 -23 34 -26 64 -21 26 5 40 2 55 -11 20 -17 20
-17 -16 -41 -33 -23 -38 -24 -79 -12 -41 11 -48 10 -104 -16 -32 -16 -59 -32
-59 -36 0 -4 -21 -6 -47 -6 -28 1 -47 -3 -46 -9 1 -6 -10 -9 -25 -7 -30 4 -99
-47 -88 -65 3 -6 1 -14 -5 -18 -7 -4 -9 -25 -4 -61 4 -35 3 -59 -5 -68 -7 -9
-8 -15 0 -20 23 -14 8 -24 -32 -20 -85 8 -162 28 -182 47 -17 16 -30 19 -69
14 -36 -4 -56 0 -83 14 -35 20 -61 28 -34 10 9 -6 10 -10 3 -10 -7 0 -42 30
-78 66 -68 70 -124 168 -163 289 -22 66 -31 74 -50 45 -12 -20 -11 -28 13
-115 11 -40 19 -55 26 -55 5 0 9 -5 9 -11 0 -5 -3 -8 -7 -6 -5 3 -7 -25 -6
-61 1 -37 2 -87 3 -111 0 -25 -5 -48 -11 -52 -8 -5 -5 -11 10 -20 27 -17 27
-29 1 -22 -11 3 -20 1 -20 -5 0 -16 22 -27 48 -23 12 1 22 -2 22 -8 0 -6 13
-17 30 -26 29 -15 55 -71 41 -87 -4 -4 -31 -10 -61 -13 -30 -4 -81 -15 -113
-26 -31 -10 -62 -19 -68 -19 -7 0 -18 -8 -25 -17 -7 -10 -16 -15 -20 -10 -4 4
9 23 30 43 42 39 42 51 -1 37 -17 -6 -29 -18 -31 -31 -2 -12 -9 -22 -17 -22
-7 0 -15 -6 -18 -14 -3 -8 -24 -20 -47 -27 -28 -9 -39 -17 -35 -26 3 -9 -1
-14 -13 -12 -9 1 -28 1 -42 0 -22 -1 -23 -3 -9 -14 15 -11 15 -14 -6 -24 -17
-7 -27 -7 -34 0 -6 6 -14 8 -17 4 -4 -3 1 -13 10 -22 9 -9 16 -20 16 -25 0
-13 -18 -22 -24 -11 -10 15 -44 0 -50 -22 -7 -29 3 -36 20 -13 14 19 15 19 45
-10 24 -23 29 -35 25 -58 -5 -25 -4 -27 9 -16 9 8 13 21 9 32 -4 12 1 25 15
37 13 11 19 26 16 39 -2 13 1 22 8 22 7 0 23 17 37 37 40 59 81 103 91 97 14
-8 11 -34 -4 -29 -7 3 -18 -12 -28 -40 -9 -25 -15 -45 -13 -45 1 0 24 18 49
40 62 54 130 87 194 96 l52 7 -12 -27 c-14 -29 -6 -44 13 -29 20 17 62 27 54
14 -5 -7 2 -11 16 -12 81 -3 134 -12 143 -23 6 -7 19 -15 30 -18 11 -3 56 -15
100 -27 123 -33 137 -40 129 -65 -6 -19 -5 -19 10 -7 11 10 20 11 24 5 9 -14
71 -44 89 -44 7 0 16 -7 19 -15 4 -8 12 -15 20 -15 8 0 14 -7 14 -15 0 -8 8
-15 18 -16 14 0 14 -2 -3 -9 -18 -7 -19 -8 -2 -15 9 -4 17 -11 17 -16 0 -12
38 -49 50 -49 6 0 10 -5 10 -11 0 -5 4 -8 8 -5 5 3 14 -11 21 -30 7 -18 16
-34 21 -34 4 0 21 -13 36 -29 15 -17 31 -28 36 -25 4 3 8 -1 8 -9 0 -8 7 -18
16 -21 9 -3 12 -2 8 5 -3 6 3 5 14 -2 12 -7 18 -17 15 -22 -6 -10 64 -77 79
-77 5 0 8 -4 8 -10 0 -11 96 -105 145 -141 17 -12 44 -35 61 -51 17 -16 39
-31 48 -32 10 -1 21 -7 24 -12 4 -6 15 -13 24 -17 15 -5 16 -4 5 13 -6 11 -15
20 -19 20 -5 0 -8 10 -8 21 0 12 -18 39 -40 61 -22 22 -40 47 -40 54 0 8 -9
23 -19 33 -26 26 -35 58 -17 58 9 0 13 -5 9 -10 -3 -5 3 -6 16 -2 11 3 21 2
21 -3 0 -9 39 -25 65 -27 6 0 16 -4 23 -8 6 -5 16 -5 22 -2 5 3 8 0 5 -7 -2
-7 2 -22 11 -33 13 -17 16 -18 24 -5 8 13 10 13 10 -2 0 -9 3 -18 8 -20 12 -5
58 -99 83 -168 36 -103 80 -165 116 -165 7 0 19 -9 27 -20 15 -20 15 -20 15 0
0 11 -11 34 -25 50 -23 27 -26 28 -21 8 5 -23 -7 -31 -18 -13 -5 7 2 26 23 59
1 3 9 -4 17 -15 8 -10 15 -14 15 -7 0 6 -4 15 -10 18 -5 3 -10 16 -9 28 1 58
92 -208 129 -379 24 -111 25 -115 68 -184 l34 -55 -5 70 c-5 58 -20 146 -44
250 -2 11 -5 29 -7 40 -9 59 -91 274 -134 350 -38 67 -64 110 -71 115 -13 10
-32 52 -27 58 4 3 20 -5 37 -17 25 -18 33 -21 39 -10 12 18 -6 48 -35 61 -14
6 -27 19 -30 28 -3 10 -21 28 -40 41 -19 13 -38 33 -43 44 -32 76 -118 233
-197 360 -52 83 -101 169 -110 193 -14 34 -20 40 -31 31 -8 -6 -14 -8 -14 -4
0 4 -7 2 -15 -5 -13 -11 -15 -6 -15 34 0 29 4 45 10 41 6 -3 8 -16 6 -28 -1
-12 -1 -16 1 -9 3 6 9 12 15 12 5 0 8 7 4 15 -3 9 0 15 9 15 9 0 12 -6 8 -16
-5 -14 -3 -14 15 -3 16 10 18 17 11 35 -6 17 -4 28 8 40 15 15 18 15 31 -2 10
-13 16 -15 19 -6 7 18 21 15 26 -5 4 -17 5 -17 6 0 0 9 6 17 12 17 6 0 9 6 6
14 -3 8 1 17 9 20 8 3 14 14 14 25 0 11 5 23 10 26 11 7 53 83 55 100 1 6 3
29 3 52 2 29 10 51 28 73 15 17 23 34 20 38 -4 3 -10 1 -14 -6 -5 -6 -20 -9
-36 -6 -25 4 -35 10 -69 40 -7 6 -28 14 -48 18 -64 12 -70 22 -70 114 0 79 -1
82 -19 72 -16 -9 -20 -7 -20 5 0 16 -35 56 -47 54 -5 -1 -30 -9 -58 -18z m-95
-482 c0 -15 -21 -21 -35 -9 -8 6 -19 9 -25 5 -10 -6 -14 7 -5 17 8 7 65 -3 65
-13z m160 1 c0 -14 -7 -20 -23 -20 -13 0 -26 3 -30 6 -12 12 6 34 29 34 17 0
24 -6 24 -20z m-400 -65 c0 -8 -4 -15 -9 -15 -13 0 -22 16 -14 24 11 11 23 6
23 -9z m23 -61 c27 7 65 -13 46 -25 -10 -6 -8 -13 11 -29 l25 -22 -30 7 c-51
11 -55 14 -49 30 4 9 1 15 -7 15 -8 0 -23 7 -34 16 -17 13 -18 16 -5 24 11 7
16 5 18 -6 3 -11 11 -14 25 -10z m534 0 c-3 -3 -12 -4 -19 -1 -8 3 -5 6 6 6
11 1 17 -2 13 -5z m-1177 -162 c0 -5 -6 -9 -13 -9 -7 0 -25 -3 -41 -7 -26 -6
-28 -5 -17 8 14 17 71 22 71 8z m910 -573 c0 -13 -38 -11 -46 3 -4 7 -3 8 4 4
7 -4 12 -3 12 3 0 6 7 8 15 5 8 -4 15 -10 15 -15z m47 -35 c-3 -3 -12 -4 -19
-1 -8 3 -5 6 6 6 11 1 17 -2 13 -5z m71 -14 c7 0 20 -6 27 -14 17 -17 30 -66
18 -66 -18 0 -83 66 -83 85 0 15 3 16 12 7 7 -7 18 -12 26 -12z m182 -40 c0
-5 -4 -10 -10 -10 -5 0 -10 5 -10 10 0 6 5 10 10 10 6 0 10 -4 10 -10z m250
-22 c0 -5 -7 -3 -15 6 -8 8 -15 18 -15 22 0 3 7 1 15 -6 8 -7 15 -17 15 -22z
m-58 -65 c9 -16 18 -37 20 -48 1 -11 10 -23 18 -27 11 -6 11 -7 -4 -5 -10 1
-26 17 -36 34 -9 18 -20 30 -22 27 -3 -3 -5 7 -5 21 0 32 9 32 29 -2z m74
-230 c-11 -11 -17 4 -9 23 7 18 8 18 11 1 2 -10 1 -21 -2 -24z"/>
<path d="M3390 2350 c0 -5 5 -10 10 -10 6 0 10 5 10 10 0 6 -4 10 -10 10 -5 0
-10 -4 -10 -10z"/>
<path d="M3305 2310 c-15 -16 -16 -22 -5 -35 9 -11 16 -13 24 -5 5 5 18 10 28
10 22 0 23 13 2 34 -20 21 -27 20 -49 -4z"/>
<path d="M3914 2199 c26 -16 145 -23 176 -11 22 10 20 11 -21 11 -25 1 -75 4
-110 7 -53 4 -61 3 -45 -7z"/>
<path d="M4895 2132 c-48 -22 -37 -32 46 -39 l59 -6 0 32 c0 28 -3 31 -32 31
-18 0 -51 -9 -73 -18z"/>
<path d="M1668 1938 c-20 -24 -35 -44 -33 -46 2 -2 17 4 35 13 18 9 29 19 26
22 -3 3 -1 14 5 25 19 35 4 28 -33 -14z"/>
<path d="M1880 1680 c-30 -4 -66 -12 -80 -18 -14 -5 -28 -10 -33 -11 -68 -9
-276 -190 -344 -300 -39 -62 -25 -66 16 -5 86 129 245 259 359 294 95 30 197
27 297 -8 104 -36 136 -59 275 -195 64 -63 159 -147 211 -189 191 -153 282
-257 405 -468 80 -137 114 -217 114 -270 0 -21 6 -41 13 -44 9 -3 7 -8 -5 -15
-13 -9 -16 -23 -12 -72 4 -46 1 -65 -10 -78 -10 -11 -12 -21 -6 -31 14 -21 12
-30 -5 -30 -17 0 -20 -16 -6 -24 10 -6 9 -31 -1 -42 -4 -3 -12 -3 -18 1 -8 5
-9 10 -2 14 6 4 7 12 3 20 -6 9 -10 5 -15 -14 -10 -38 3 -47 68 -46 43 0 56
-3 56 -14 0 -18 14 -19 41 -5 24 14 26 -5 2 -20 -15 -9 -13 -10 12 -5 66 13
120 79 153 185 41 134 6 251 -121 399 -51 60 -65 97 -17 43 17 -18 30 -29 30
-24 0 12 -55 63 -62 57 -3 -3 -32 23 -64 57 -32 35 -90 89 -127 121 -97 83
-177 159 -177 171 0 5 33 -22 73 -60 131 -124 250 -217 169 -132 -18 19 -29
38 -25 43 5 4 2 5 -5 1 -15 -9 -17 -7 -113 86 -36 36 -68 71 -71 78 -2 7 -14
14 -27 15 -15 1 -20 -3 -16 -13 3 -7 -8 -1 -25 15 -37 34 -38 41 -4 18 46 -30
15 9 -46 57 -30 23 -75 62 -100 84 -25 23 -67 59 -94 79 -28 21 -59 46 -70 56
-11 11 -46 36 -78 56 -32 20 -58 41 -58 45 0 4 -9 8 -20 8 -11 0 -20 5 -20 11
0 6 -7 8 -15 5 -22 -8 -54 14 -47 32 3 10 1 13 -6 8 -7 -4 -15 0 -18 9 -4 8
-11 15 -18 14 -38 -5 -58 2 -52 17 6 15 4 15 -10 3 -14 -11 -18 -11 -28 1 -6
9 -30 16 -55 17 -24 0 -48 6 -54 12 -12 12 -34 12 -117 1z"/>
<path d="M1485 1580 c-3 -5 -1 -10 4 -10 6 0 11 5 11 10 0 6 -2 10 -4 10 -3 0
-8 -4 -11 -10z"/>
<path d="M1295 1210 c-3 -5 1 -10 9 -10 9 0 16 5 16 10 0 6 -4 10 -9 10 -6 0
-13 -4 -16 -10z"/>
<path d="M1250 1169 c0 -5 5 -7 10 -4 6 3 10 8 10 11 0 2 -4 4 -10 4 -5 0 -10
-5 -10 -11z"/>
<path d="M2329 903 c-5 -14 -8 -30 -6 -36 1 -5 8 7 14 27 13 42 7 49 -8 9z"/>
<path d="M3106 892 c-4 -7 14 -33 45 -64 33 -33 45 -41 31 -22 -11 17 -29 37
-38 45 -9 7 -19 22 -23 33 -5 13 -10 16 -15 8z"/>
<path d="M2503 791 c-15 -28 -34 -51 -40 -51 -7 0 -13 -5 -13 -11 0 -10 -40
-47 -83 -78 -27 -20 -36 -1 -38 79 l-1 65 -12 -60 c-14 -65 -33 -129 -48 -159
-8 -15 -12 -16 -20 -5 -8 11 -9 10 -5 -3 3 -9 -1 -22 -9 -29 -9 -7 -22 -25
-30 -41 -8 -15 -19 -28 -25 -28 -6 0 -7 5 -4 10 3 6 1 10 -4 10 -6 0 -11 -3
-11 -8 0 -4 -18 -27 -40 -52 -63 -71 -65 -74 -62 -92 2 -9 -6 -22 -17 -28 -12
-6 -21 -17 -21 -24 0 -21 -41 -103 -83 -169 -20 -31 -37 -62 -37 -67 0 -6 -6
-10 -14 -10 -12 0 -26 -20 -26 -37 0 -8 401 0 406 9 3 4 1 8 -5 8 -6 0 -16 10
-22 23 -11 20 -11 21 4 9 9 -8 21 -11 28 -7 6 4 15 2 19 -5 6 -9 13 -9 26 -2
18 10 17 11 -9 21 -16 6 -35 11 -43 11 -15 0 -31 27 -21 36 7 8 147 -38 147
-48 0 -4 19 -7 43 -7 l42 1 -35 8 c-48 10 -94 29 -87 36 3 4 -5 17 -19 31 -25
25 -30 38 -16 47 9 5 0 77 -12 107 -4 10 -2 20 4 24 8 5 8 10 0 20 -8 10 -6
17 10 28 15 11 18 16 8 20 -10 4 -11 7 0 18 6 7 12 20 12 29 0 9 13 30 30 46
16 16 30 39 30 51 0 12 5 25 10 28 6 3 10 13 10 22 0 8 16 41 35 72 34 55 89
190 81 198 -2 3 -17 -18 -33 -46z"/>
<path d="M3290 660 c12 -16 24 -30 26 -30 3 0 -4 14 -16 30 -12 17 -24 30 -26
30 -3 0 4 -13 16 -30z"/>
<path d="M3535 257 c-20 -55 -32 -71 -74 -99 -32 -22 -45 -23 -37 -2 3 8 8 41
11 72 l6 57 -39 -78 c-42 -83 -68 -117 -88 -117 -7 0 -14 -5 -16 -11 -2 -5
-10 -11 -18 -13 -8 -2 -28 -8 -43 -14 -16 -7 -43 -12 -62 -12 -19 0 -37 -5
-40 -10 -4 -6 -10 -8 -15 -5 -4 3 -34 -1 -67 -9 -55 -14 -44 -14 205 -15 230
-1 263 1 269 15 4 11 13 14 32 9 25 -6 25 -6 6 9 -20 15 -20 15 3 16 12 0 22
-6 22 -12 1 -8 6 -5 14 5 12 16 18 17 38 6 13 -7 28 -19 34 -27 9 -13 12 -9
16 20 2 20 0 34 -4 32 -4 -3 -5 9 -1 26 5 26 2 32 -16 37 -11 3 -21 13 -22 22
-1 9 -2 25 -3 36 -1 14 -7 19 -23 17 -19 -3 -21 1 -18 27 4 30 -7 41 -20 21
-10 -17 -27 -11 -21 8 3 9 2 23 -2 29 -5 8 -15 -6 -27 -40z"/>
<path d="M2508 43 c7 -3 16 -2 19 1 4 3 -2 6 -13 5 -11 0 -14 -3 -6 -6z"/>
<path d="M2553 43 c9 -2 25 -2 35 0 9 3 1 5 -18 5 -19 0 -27 -2 -17 -5z"/>
</g>
</svg>
